<svg viewBox="0 0 86.973 84.574" xmlns="http://www.w3.org/2000/svg"><g fill="#f6d600"><path d="m23.47 157.448-1.57-1.658 5.452-5.19 1 1.047-3.664 3.533-.436.436a4.066 4.066 0 0 0 -.436.436l5.539-3.358 1.047 1.09-3.577 5.409.436-.436.436-.436 3.664-3.533 1 1.047-5.452 5.19-1.57-1.657 3.315-5.1z" transform="translate(-12.348 -84.913)"/><path d="m14.716 143.764-.916-1.527 5.016-6.237.916 1.439-1.047 1.221 1.439 2.355 1.57-.393.872 1.4zm4.056-2.4-1-1.657-2.006 2.355z" transform="translate(-7.781 -76.681)"/><path d="m11.481 128.531a1.511 1.511 0 0 0 .611-.523 1.665 1.665 0 0 0 -.044-1.439 4.767 4.767 0 0 0 -.436-.829.85.85 0 0 0 -1.047-.305.675.675 0 0 0 -.436.523 3.2 3.2 0 0 0 .044 1.09l.131.829a4.756 4.756 0 0 1 .044 1.745 1.815 1.815 0 0 1 -1.265 1.309 2.086 2.086 0 0 1 -1.832-.087 3.168 3.168 0 0 1 -1.4-1.788 3.048 3.048 0 0 1 -.131-2.137 2.153 2.153 0 0 1 1.4-1.483l.523 1.4a1.1 1.1 0 0 0 -.7.916 2.045 2.045 0 0 0 .174.96 1.743 1.743 0 0 0 .567.829.732.732 0 0 0 .785.087.614.614 0 0 0 .436-.567 3.41 3.41 0 0 0 -.087-1.047l-.174-1.352a3.529 3.529 0 0 1 .044-1.4 1.768 1.768 0 0 1 1.178-1.178 2.039 2.039 0 0 1 1.876.131 3.447 3.447 0 0 1 1.439 1.876 3.754 3.754 0 0 1 .218 2.443 2.162 2.162 0 0 1 -1.439 1.439z" transform="translate(-3.15 -69.866)"/><path d="m.6 111.762 1.309-.262.436 2.224 6.106-1.178.305 1.57-6.106 1.179.436 2.224-1.309.262z" transform="translate(-.338 -62.867)"/><path d="m1.352 94.893.087 3.969 1.614-.044-.087-3.664 1.309-.044.087 3.664 1.919-.044-.087-4.187 1.352-.043.131 5.714-7.546.174-.131-5.452z" transform="translate(0 -53.282)"/><path d="m1.36 78.23a2.038 2.038 0 0 1 .611-.611 1.927 1.927 0 0 1 .7-.262 2.372 2.372 0 0 1 .785 0 2.281 2.281 0 0 1 1 .436 1.382 1.382 0 0 1 .567 1 1.33 1.33 0 0 1 .7-.611 3.3 3.3 0 0 1 1.177-.039l.48.087c.349.044.567.087.7.087a.625.625 0 0 0 .48-.218l.174.044-.218 1.7c-.174 0-.305.044-.436.044a3.3 3.3 0 0 1 -.654-.044l-.654-.131a1.411 1.411 0 0 0 -1 .087c-.218.131-.305.436-.349.829l-.262 1.527 2.922.48-.262 1.527-7.421-1.221.567-3.577a3.113 3.113 0 0 1 .393-1.134zm.567 3.4 2.006.349.262-1.657a2.335 2.335 0 0 0 0-.785.823.823 0 0 0 -.785-.567.879.879 0 0 0 -.96.262 1.3 1.3 0 0 0 -.262.7z" transform="translate(-.226 -43.598)"/><path d="m6.3 61.6.654-1.439 5.67 2.486 1.527-3.447 1.221.567-2.137 4.885z" transform="translate(-3.552 -33.379)"/><path d="m23.513 42.838a3.247 3.247 0 0 1 -.7 2.53 3.271 3.271 0 0 1 -2.137 1.527 4.092 4.092 0 0 1 -3.228-.829 4.029 4.029 0 0 1 -1.919-2.7 3.247 3.247 0 0 1 .7-2.53 3.271 3.271 0 0 1 2.138-1.536 4.129 4.129 0 0 1 3.228.829 4.177 4.177 0 0 1 1.918 2.709zm-1.483.174a3.1 3.1 0 0 0 -1.309-1.57 3.075 3.075 0 0 0 -1.919-.654 1.774 1.774 0 0 0 -1.4.829 1.8 1.8 0 0 0 -.262 1.614 3.1 3.1 0 0 0 1.309 1.57 3.075 3.075 0 0 0 1.919.654 1.774 1.774 0 0 0 1.4-.829 2.118 2.118 0 0 0 .262-1.614z" transform="translate(-8.727 -22.119)"/><path d="m28.2 28.59a3.114 3.114 0 0 1 1-2.268 2.955 2.955 0 0 1 4.187-.349l-1.134 1.09a1.944 1.944 0 0 0 -.829-.305 1.479 1.479 0 0 0 -1.221.523 1.6 1.6 0 0 0 -.48 1.439 3.464 3.464 0 0 0 1 1.745 2.724 2.724 0 0 0 1.7 1 1.749 1.749 0 0 0 1.4-.436 1.51 1.51 0 0 0 .523-1.265 3.207 3.207 0 0 0 -.305-.916l1.047-1.09a3.38 3.38 0 0 1 .654 2.181 3.47 3.47 0 0 1 -3.533 3.053 4.283 4.283 0 0 1 -2.661-1.439 4.3 4.3 0 0 1 -1.348-2.963z" transform="translate(-15.9 -14.24)"/><path d="m40.2 15.189 1.309-.829 1.7 2.617.785-4.187 1.7-1.09-.916 4.274 5.06 1.963-1.7 1.09-3.707-1.527-.218 1.047 1.352 2.137-1.309.829z" transform="translate(-22.666 -6.597)"/><path d="m60.215 12.269a1.3 1.3 0 0 0 .567.611 1.6 1.6 0 0 0 1.4-.087 2.963 2.963 0 0 0 .829-.48.907.907 0 0 0 .305-1.047.629.629 0 0 0 -.523-.393 4.959 4.959 0 0 0 -1.09.044l-.872.131a5.055 5.055 0 0 1 -1.745.087 1.754 1.754 0 0 1 -1.309-1.221 2.237 2.237 0 0 1 .044-1.832 2.942 2.942 0 0 1 1.779-1.439 3.316 3.316 0 0 1 2.137-.174 2.233 2.233 0 0 1 1.531 1.351l-1.4.567a1.105 1.105 0 0 0 -.916-.654 2.045 2.045 0 0 0 -.96.174 1.793 1.793 0 0 0 -.829.611.742.742 0 0 0 -.087.785.663.663 0 0 0 .567.436 3.41 3.41 0 0 0 1.057-.087l1.352-.218a3.7 3.7 0 0 1 1.4 0 1.921 1.921 0 0 1 1.221 1.178 2.174 2.174 0 0 1 -.087 1.876 3.233 3.233 0 0 1 -1.832 1.483 3.8 3.8 0 0 1 -2.443.262 2.247 2.247 0 0 1 -1.483-1.4z" transform="translate(-32.475 -3.589)"/><path d="m78.629.793 2.224-.393 1.352 7.415-1.439.262-.916-5.06c-.044-.131-.044-.349-.087-.611a5.005 5.005 0 0 1 -.087-.611l-.262 6.455-1.527.262-2.573-5.888c.044.131.044.349.131.611a4.634 4.634 0 0 0 .131.611l.916 5.016-1.439.262-1.353-7.415 2.268-.393 2.4 5.583z" transform="translate(-41.554 -.226)"/><path d="m96.432 7.746-1.57.044-.262-7.546 1.57-.044z" transform="translate(-53.338 -.113)"/><path d="m107.094.523-.131 1.309-2.268-.174-.523 6.194-1.572-.132.523-6.194-2.223-.217.131-1.309z" transform="translate(-56.89)"/><path d="m114.6 9.084 1.963-7.284 1.527.393-.741 2.791 2.835.741.742-2.791 1.527.393-2.008 7.373-1.527-.393.872-3.228-2.835-.829-.872 3.228z" transform="translate(-64.615 -1.015)"/><path d="m132.606 13.484a1.977 1.977 0 0 0 -.087.829 1.611 1.611 0 0 0 1 1 3.5 3.5 0 0 0 .872.305.969.969 0 0 0 1-.48.7.7 0 0 0 -.044-.654 3.263 3.263 0 0 0 -.785-.785l-.654-.523a5.164 5.164 0 0 1 -1.221-1.221 1.755 1.755 0 0 1 .044-1.788 2.1 2.1 0 0 1 1.4-1.178 3.155 3.155 0 0 1 2.268.349 3.076 3.076 0 0 1 1.57 1.483 2.262 2.262 0 0 1 0 2.05l-1.352-.654a1.063 1.063 0 0 0 -.131-1.134 1.977 1.977 0 0 0 -.741-.567 1.826 1.826 0 0 0 -1-.218.793.793 0 0 0 -.654.436.592.592 0 0 0 .087.7 3.386 3.386 0 0 0 .785.7l1.047.872a3.1 3.1 0 0 1 .916 1.047 1.732 1.732 0 0 1 -.087 1.657 2.15 2.15 0 0 1 -1.483 1.178 3.486 3.486 0 0 1 -2.312-.349 3.973 3.973 0 0 1 -1.832-1.614 2.268 2.268 0 0 1 .044-2.05z" transform="translate(-73.854 -5.022)"/><path d="m153.435 22.4 1.352 1.134-2.787 7.502-1.309-1.09.611-1.527-2.137-1.788-1.4.872-1.265-1.047zm-3.1 3.489 1.483 1.221 1.182-2.878z" transform="translate(-82.601 -12.63)"/><path d="m162.919 37.034a1.808 1.808 0 0 0 -.436.7 1.723 1.723 0 0 0 .48 1.352 2.4 2.4 0 0 0 .7.654.852.852 0 0 0 1.09-.044.641.641 0 0 0 .218-.611 4.009 4.009 0 0 0 -.393-1.047l-.393-.741a6.091 6.091 0 0 1 -.611-1.657 1.878 1.878 0 0 1 .785-1.614 2.074 2.074 0 0 1 1.788-.48 3.369 3.369 0 0 1 1.919 1.265 3.275 3.275 0 0 1 .829 2.006 2.182 2.182 0 0 1 -.872 1.832l-.96-1.178a1.045 1.045 0 0 0 .349-1.09 1.915 1.915 0 0 0 -.436-.829 1.783 1.783 0 0 0 -.829-.611.865.865 0 0 0 -.785.131.559.559 0 0 0 -.218.654 5.474 5.474 0 0 0 .393.96l.611 1.221a3.246 3.246 0 0 1 .393 1.352 1.824 1.824 0 0 1 -.785 1.483 2.128 2.128 0 0 1 -1.832.48 3.415 3.415 0 0 1 -1.963-1.309 3.782 3.782 0 0 1 -.96-2.224 2.315 2.315 0 0 1 .872-1.832z" transform="translate(-90.776 -18.89)"/><path d="m172.191 50.406a2.053 2.053 0 0 0 -.523.611 1.742 1.742 0 0 0 .262 1.4 2.075 2.075 0 0 0 .567.741.874.874 0 0 0 1.09.174.629.629 0 0 0 .349-.567 3.148 3.148 0 0 0 -.218-1.09l-.218-.785a5.355 5.355 0 0 1 -.305-1.745 1.746 1.746 0 0 1 1.047-1.439 2.1 2.1 0 0 1 1.832-.174 3.7 3.7 0 0 1 2.094 3.664 2.166 2.166 0 0 1 -1.178 1.657l-.741-1.309a1.115 1.115 0 0 0 .567-1 1.743 1.743 0 0 0 -.305-.916 1.924 1.924 0 0 0 -.7-.741.834.834 0 0 0 -.785 0 .7.7 0 0 0 -.349.611 6.26 6.26 0 0 0 .218 1.047l.349 1.309a3.461 3.461 0 0 1 .174 1.4 1.926 1.926 0 0 1 -1 1.352 2.039 2.039 0 0 1 -1.876.131 3.439 3.439 0 0 1 -1.7-1.657 3.9 3.9 0 0 1 -.567-2.355 2.333 2.333 0 0 1 1.221-1.657z" transform="translate(-95.992 -26.722)"/><path d="m179.064 70.576a3.1 3.1 0 0 1 -1.57-2.094 3.154 3.154 0 0 1 .087-2.617 4.032 4.032 0 0 1 2.617-2.05 3.926 3.926 0 0 1 3.315.131 3.1 3.1 0 0 1 1.57 2.094 3.154 3.154 0 0 1 -.083 2.617 4.166 4.166 0 0 1 -2.617 2.05 3.926 3.926 0 0 1 -3.319-.131zm.785-1.265a3.055 3.055 0 0 0 2.05-.087 3.1 3.1 0 0 0 1.7-1.134 1.929 1.929 0 0 0 -.916-2.835 3.055 3.055 0 0 0 -2.05.087 3 3 0 0 0 -1.7 1.134 1.906 1.906 0 0 0 -.218 1.614 1.868 1.868 0 0 0 1.134 1.221z" transform="translate(-99.943 -35.813)"/><path d="m187.731 83.195a2.976 2.976 0 0 1 1.178 2.224 3.076 3.076 0 0 1 -.96 2.879 2.609 2.609 0 0 1 -1.352.654l-.174-1.57a2.2 2.2 0 0 0 .785-.48 1.576 1.576 0 0 0 .349-1.309 1.6 1.6 0 0 0 -.829-1.265 3.521 3.521 0 0 0 -2.006-.262 3.235 3.235 0 0 0 -1.832.7 1.55 1.55 0 0 0 -.48 1.352 1.48 1.48 0 0 0 .654 1.178 3.192 3.192 0 0 0 .916.305l.174 1.57a3.216 3.216 0 0 1 -2.094-.829 2.985 2.985 0 0 1 -1-2.05 3.035 3.035 0 0 1 .785-2.617 4.148 4.148 0 0 1 2.748-1.221 4.069 4.069 0 0 1 3.138.741z" transform="translate(-102.067 -46.469)"/><path d="m182 101.67.044-1.57 7.546.174-.044 1.57z" transform="translate(-102.617 -56.439)"/><path d="m187.913 108.582-.262 1.745-7.851 1.439.262-1.7 1.614-.262.436-2.748-1.439-.741.262-1.614zm-4.623-.829-.305 1.919 3.1-.48z" transform="translate(-101.376 -59.033)"/><path d="m183.855 129.537-1.265-.436.7-2.137-5.888-1.919.48-1.527 5.888 1.919.7-2.137 1.265.436z" transform="translate(-100.023 -69.52)"/><path d="m173.7 134.339.654-1.439 6.848 3.184-.654 1.439z" transform="translate(-97.937 -74.933)"/><path d="m166.817 144.872a3.162 3.162 0 0 1 .611-2.53 3.04 3.04 0 0 1 2.094-1.57 4.01 4.01 0 0 1 3.228.741 3.811 3.811 0 0 1 1.963 2.661 3.162 3.162 0 0 1 -.611 2.53 3.04 3.04 0 0 1 -2.094 1.57 4.042 4.042 0 0 1 -3.228-.741 4.277 4.277 0 0 1 -1.963-2.661zm1.527-.174a3.136 3.136 0 0 0 1.352 1.527 3.04 3.04 0 0 0 1.963.611 1.825 1.825 0 0 0 1.4-.872 1.663 1.663 0 0 0 .218-1.614 2.781 2.781 0 0 0 -1.352-1.527 3.407 3.407 0 0 0 -1.963-.611 1.825 1.825 0 0 0 -1.4.872 1.663 1.663 0 0 0 -.218 1.616z" transform="translate(-94.02 -79.316)"/><path d="m162.983 158.078-1.178 1.178-5.845-1.57 3.751 3.707-1.047 1.047-5.365-5.278 1.09-1.134 5.976 1.57-3.795-3.751 1.047-1.047z" transform="translate(-86.435 -86.153)"/><path d="m66.585 163.2h4.015v13.39h-2.619v-11.21l-2.53 11.21h-2.7l-2.53-11.21v11.21h-2.621v-13.39h4.056l2.444 10.512z" transform="translate(-32.477 -92.017)"/><path d="m92.5 163.2h2.835v10.992h6.673v2.4h-9.508z" transform="translate(-52.155 -92.017)"/><path d="m120.411 163.2h3.184l4.754 13.39h-3.01l-.872-2.748h-4.929l-.916 2.748h-2.922zm-.174 8.287h3.446l-1.7-5.278z" transform="translate(-65.235 -92.017)"/><path d="m124.591 57.978c-3.751-3.489-4.754-8.287-2.312-10.9s7.284-1.876 11.035 1.614 4.754 8.287 2.312 10.9c-2.443 2.573-7.284 1.875-11.035-1.614zm6.5-6.935c-2.573-2.4-5.5-2.835-6.5-1.745s-.393 3.969 2.181 6.368 5.5 2.835 6.5 1.745.347-3.969-2.182-6.368z" transform="translate(-68.194 -25.658)"/><ellipse cx="1.309" cy="1.963" rx="1.309" ry="1.963" transform="matrix(.68363052 -.72982828 .72982828 .68363052 50.875 35.301)"/><ellipse cx="1.309" cy="1.963" rx="1.309" ry="1.963" transform="matrix(.68363052 -.72982828 .72982828 .68363052 35.848 51.386)"/><ellipse cx="1.003" cy="1.963" rx="1.003" ry="1.963" transform="matrix(.68363052 -.72982828 .72982828 .68363052 33.558 53.815)"/><ellipse cx="1.309" cy="1.963" rx="1.309" ry="1.963" transform="matrix(.68363052 -.72982828 .72982828 .68363052 52.37 33.728)"/><path d="m58.763 104.285a1.265 1.265 0 0 1 -.044-1.832l30.181-32.189a1.265 1.265 0 0 1 1.832-.044 1.265 1.265 0 0 1 .044 1.832l-30.176 32.189a1.3 1.3 0 0 1 -1.837.044z" transform="translate(-32.899 -39.383)"/><path d="m55.66 114.094-5.845-5.452a1.3 1.3 0 0 0 -1.832.044l-.087.087 1.745 1.657-.829.872 1.745 1.614a.772.772 0 1 1 -1.047 1.134l-2.53-2.355-.829.872 2.53 2.355a.772.772 0 1 1 -1.047 1.134l-1.745-1.614-.785.829-1.745-1.657-.218.218a1.3 1.3 0 0 0 .044 1.832l5.845 5.452a1.3 1.3 0 0 0 1.832-.044l4.8-5.147a1.265 1.265 0 0 0 -.002-1.831z" transform="translate(-24.124 -61.055)"/><path d="m64.632 124.7 1.178 1.876-4.842 5.147-2.268-1.353z" transform="translate(-33.097 -70.309)"/><path d="m44.193 59.575c-2.443-2.617-1.4-7.371 2.312-10.9s8.595-4.235 11.035-1.618 1.4 7.371-2.312 10.9-8.636 4.192-11.035 1.618zm2.312-2.181c1 1.09 3.926.611 6.5-1.745s3.184-5.278 2.181-6.368-3.926-.611-6.5 1.745-3.186 5.274-2.181 6.368z" transform="translate(-24.173 -25.641)"/><ellipse cx="1.963" cy="1.309" rx="1.963" ry="1.309" transform="matrix(.72982828 -.68363052 .68363052 .72982828 31.855 36.063)"/><ellipse cx="1.963" cy="1.309" rx="1.963" ry="1.309" transform="matrix(.72982828 -.68363052 .68363052 .72982828 46.922 52.15)"/><ellipse cx="1.963" cy="1.003" rx="1.963" ry="1.003" transform="matrix(.72982828 -.68363052 .68363052 .72982828 49.614 55.046)"/><ellipse cx="1.963" cy="1.309" rx="1.963" ry="1.309" transform="matrix(.72982828 -.68363052 .68363052 .72982828 30.382 34.487)"/><path d="m99.291 104.285a1.265 1.265 0 0 0 .044-1.832l-30.135-32.189a1.265 1.265 0 0 0 -1.832-.044 1.265 1.265 0 0 0 -.044 1.832l30.176 32.189a1.249 1.249 0 0 0 1.791.044z" transform="translate(-37.747 -39.383)"/><path d="m127.593 114.094 5.845-5.452a1.3 1.3 0 0 1 1.832.044l.087.087-1.745 1.657.829.872-1.745 1.614a.772.772 0 1 0 1.047 1.134l2.53-2.355.829.872-2.53 2.355a.772.772 0 1 0 1.047 1.134l1.745-1.614.785.829 1.745-1.657.218.218a1.3 1.3 0 0 1 -.044 1.832l-5.845 5.452a1.3 1.3 0 0 1 -1.832-.044l-4.8-5.147a1.265 1.265 0 0 1 .002-1.831z" transform="translate(-71.719 -61.055)"/><path d="m126.578 124.7-1.178 1.876 4.8 5.147 2.268-1.352z" transform="translate(-70.704 -70.309)"/></g></svg>